<?xml version="1.0" encoding="UTF-8"?>
<svg xmlns="http://www.w3.org/2000/svg" id="Ebene_1" viewBox="0 0 780 100">
  <title>Logo_mit_Schriftzug Kopie</title>
  <path d="M766,36.151H697.743c-21.248.143-39.6.266-63.164,4.364-12.391,2.155-23.367,10.131-32.187,16.541-2.5,1.819-4.867,3.537-7.023,4.945-4.044,2.642-9.514,5.183-12.6,2.275a3.774,3.774,0,0,1-1.17-2.945c.035-4.028,4.29-9.684,8.491-13.5,3.259-2.962,8.531-8.358,7.231-11.208-.33-.724-1.166-1.537-3.272-1.284-2.825.335-9.086,4.289-14.445,8.007,3.911-4.872,2.946-6.1,2.5-6.669-1.365-1.742-5.535-.4-12.4,4-8.9,5.708-16.142,9.291-19.87,9.83-1.029.149-1.836,0-2.1-.394-.239-.359-.2-1.23.615-2.6a27.437,27.437,0,0,1,2.144-3.087c2.734-.593,12.616-3.047,12.243-7.437A1.754,1.754,0,0,0,561.3,35.4c-2.224-.514-7.223,1.94-11.481,6.757a.929.929,0,0,0-.173.024c-.067.023-6.819,2.431-16.905,7.167-4.058,1.9-6.7,1.607-7.282.788-.435-.612.138-1.877,1.457-3.222,2.089-2.13,5.065-4.788,6.843-6.375l.323-.289c1.485-1.328,3.343-3.259,2.327-4.7s-3.9-.6-6.053.571c-3.677,1.994-14.773,8.758-20.055,11.993,1.517-1.792,4.268-4.773,9.251-9.726a186.61,186.61,0,0,0,16.434-11.458c1.8-1.552,6.351-6.468,5.957-8.344a1.235,1.235,0,0,0-.852-.942c-.789-.243-2.266-.686-16.535,13.06-2.365,2.278-4.429,4.294-6.227,6.078-7.637,4.9-16.007,9.913-21.162,12.464-2.676,1.325-4.6,1.626-5.14.808-.9-1.36.768-5.518,2.979-7.435.292-.223.48-.372.532-.413a.716.716,0,0,0,.076-.067c1.667-1.629,4.977-4.226,6.7-4.137a.8.8,0,0,1,.628.258c.031.035.079.087.063.265-.114,1.294-2.72,3.865-4.534,5.276a1,1,0,0,0,1.227,1.579c.845-.656,5.067-4.062,5.3-6.679a2.29,2.29,0,0,0-.569-1.78,2.807,2.807,0,0,0-2.05-.918h-.109c-3.067,0-7.356,4.036-8.01,4.669-.718.564-11.4,8.851-18.009,9.029-1.148.023-1.965-.17-2.129-.537-.394-.879,1.174-3.409,2.883-5.221a1,1,0,0,0,.025-1.345.986.986,0,0,0-1.126-.251c1.222-1.549,2-3.08,1.892-4.307A2.316,2.316,0,0,0,476.44,36.1c-2.575-1.248-8.283,3.892-10.76,6.312l-4.83,2.134c-5.448,2.4-10.506,4.633-14.646,6.587q.252-.705.51-1.439c.7-2,1.5-4.259,2.459-6.556.169-.405.343-.783.518-1.134,3.14-1.911,4.817-3.674,4.6-4.913a1.249,1.249,0,0,0-1.126-1.029c-1.267-.149-3.325,1.493-4.976,4.512-.686.4-1.475.831-2.383,1.285-3.789,1.895-8.29,3.913-12.642,5.865-2.294,1.029-4.527,2.031-6.568,2.975.527-1.594,1-3.273,1.46-4.9a60.756,60.756,0,0,1,1.844-5.842c1.932-1.492,3.455-3.105,3.334-4.118a1.089,1.089,0,0,0-.74-.916c-.6-.2-1.334.019-2.963,1.729a7.327,7.327,0,0,0-1.26,2.033c-.523.387-1.12.8-1.8,1.219-.657.411-1.431.911-2.295,1.47C417.857,45.457,404.71,53.955,400.156,50c-.553-.48-1.035-.879-1.449-1.211a56.1,56.1,0,0,0,6.334-2.853c6.736-3.537,6.881-5,6.936-5.545.048-.487-.062-1.646-2.113-1.88-4.794-.55-12.569,4.2-17.987,8.066l2.89-3.757c2.68-3.187,5.036-5.937,7.108-8.31,3.84-3.1,5.641-4.832,5.762-4.95.187-.157,4.618-3.873,6.992-6.268.553-.558,3.287-3.41,2.858-4.83a1.142,1.142,0,0,0-.876-.8c-.595-.123-2.28-.463-16.1,15.365-4,3.223-10.166,7.909-18.826,13.73-7.766,5.219-9.051,3.907-9.1,3.848-.908-1.042,1.2-6.026,2.757-7.763a.967.967,0,0,0,.226-.521l.781-.69c.571-.505,1.094-.968,1.559-1.372.089-.078.205-.187.343-.318.5-.48,1.664-1.636,2.453-1.567a.632.632,0,0,1,.469.26,2.853,2.853,0,0,1-.966,2.706,1,1,0,0,0,1.093,1.675,4.77,4.77,0,0,0,1.9-3.265,3.123,3.123,0,0,0-.5-2.408,2.647,2.647,0,0,0-1.9-.965c-1.647-.079-3.125,1.35-3.93,2.118-.11.1-.2.193-.274.256-.469.407-1,.875-1.573,1.384-4.305,3.81-12.317,10.9-16.768,10.9h0c-1.027,0-1.332-.23-1.353-.287-.343-.946,2.752-4.664,6.494-7.8a1,1,0,0,0-1.167-1.618l-2.1,1.291a3.765,3.765,0,0,0,.36-3.378c-.689-1.507-2.564-2.095-4.557-1.432-3.657,1.219-7.581,5.763-8.337,6.669-6.78,3.819-14.8,7.617-16.941,7.629a10.84,10.84,0,0,1,1.744-2.444c4.645-5.379,4.795-6.249,4.028-7.071-.979-1.05-2.188-.372-10.776,6.057L323.9,49.948q-.161.12-.308.227c.65-.957,1.429-2.023,1.97-2.763a23.574,23.574,0,0,0,1.805-2.639c.225-.48.91-1.942-.1-2.72-.47-.36-1.552-1.189-8.588,4.032,3.411-4.48,3.91-5.964,3.054-6.959-1.088-1.27-3.046-.937-17.242,7.516-12.315,7.334-14.065,5.734-14.08,5.715-.2-.253.227-1.576,1.3-2.648,8.546-8.545,8.322-10.39,7.441-11.449-1.694-2.036-7.419,1.655-9.132,2.834-.868.6-2.21,1.593-3.766,2.746-3.194,2.368-10.2,7.56-12.831,8.667.737-1.473,3.422-5.436,12.827-15.988q.421-.473.832-.929l1.6-1.133c1.161-.825,2.319-1.648,3.486-2.472,2.094-1.478,8.2-5.93,11.267-8.747.982-.9,4.151-3.986,3.681-5.806a1.354,1.354,0,0,0-1.01-.991c-3.247-.778-14.64,11.3-20.356,17.644A302.856,302.856,0,0,1,259,51.382c-4.371,2.5-5.83,2.241-6.024,1.928-.312-.5-.031-2.41,2.025-5.61a26.455,26.455,0,0,1,6.6-7.109c1.162-.609,1.537-.592,1.888-.186a.62.62,0,0,1,.143.533c-.142,1.191-2.021,3.122-3.717,4.333a1,1,0,1,0,1.162,1.628c.432-.309,4.226-3.088,4.541-5.723a2.62,2.62,0,0,0-.615-2.078c-1.257-1.455-2.7-1.13-4.417-.233-.007,0-.015,0-.021.009l-.014.01c-.547.288-1.122.632-1.728,1a50.456,50.456,0,0,1-5,2.714c-1.584.734-4,1.668-6.794,2.749-4.983,1.928-11.269,4.359-16.8,7.172,1.279-8.137,2.7-11.392,3.615-12.692a9.72,9.72,0,0,1,1.843-.673,1,1,0,0,0,.455-1.739,2.128,2.128,0,0,0-2.119-.294,3.594,3.594,0,0,0-1.435,1.081c-3.771,1.753-10.872,5.88-24.117,13.951-2.879,1.754-4.98,2.323-5.621,1.515-.823-1.036-.225-3.964,1.1-7.038,6.111-4.175,8.979-6.774,9.065-8.477a1.662,1.662,0,0,0-.671-1.441c-.825-.629-2.623-1.266-5.387,1.552a25.919,25.919,0,0,0-4.587,7.014c-6.047,4.1-14.224,9.125-21.022,13.307-1.533.943-3.078,1.894-4.622,2.846L193.9,43.052a.986.986,0,0,0,.065-1.254c3.725-3.682,5.6-6.771,5.58-9.218A3.154,3.154,0,0,0,198.4,29.99C191.844,25.8,175.463,34.2,161.01,41.606c-4.37,2.24-8.5,4.357-11.658,5.726C127.319,56.88,74.815,55.021,74.247,55l-59.96.21a1,1,0,0,0,0,2h0L74.212,57c2.172.082,53.485,1.9,75.935-7.832,3.22-1.4,7.375-3.526,11.775-5.782,10.167-5.212,23.37-11.982,30.982-12.522-3.953,1.455-9.229,4.954-13.85,9.417-7.562,7.306-10.362,12.057-8.561,14.525,1.225,1.678,4.08,1.4,6.145.294,1.511-.811,6.506-4.431,9.562-6.737l-15.971,17.1c-2.693,1.685-5.312,3.346-7.774,4.948C145.888,81.19,136.16,90.167,136.433,94.424a2.432,2.432,0,0,0,1.437,2.1,2.845,2.845,0,0,0,1.246.264c4.044,0,10.732-6.629,12.865-8.857l19.531-20.912c3.57-2.233,7.269-4.508,10.9-6.739,7.824-4.812,14.026-8.67,18.744-11.776-.791,2.654-.917,5.069.141,6.4,1.407,1.772,4.175,1.419,8.227-1.051,9.254-5.639,16.678-10.069,21.348-12.547a58.391,58.391,0,0,0-2.828,12.369c-1.462.806-2.845,1.639-4.1,2.5-3.783,2.579-4.109,4.4-3.716,5.467a2.411,2.411,0,0,0,2.72,1.348c2.254-.237,5.844-2.575,6.915-8.021a169.339,169.339,0,0,1,17.9-7.76c2.827-1.094,5.269-2.038,6.913-2.8.141-.065.263-.13.4-.195-2.966,3.743-5.08,8.08-3.787,10.155a2.519,2.519,0,0,0,2.3,1.13c2.247,0,5.2-1.687,6.411-2.38,8.077-4.615,14.443-8.753,20.146-12.672-10.292,11.976-9.409,12.943-8.619,13.807,1.313,1.436,4.438-.3,15.919-8.809,1.539-1.142,2.87-2.127,3.708-2.7a18.158,18.158,0,0,1,6.311-3.1c-.244.725-1.44,2.922-7.168,8.649-1.262,1.262-2.692,3.711-1.464,5.291,1.075,1.38,3.974,2.341,16.682-5.225,3.361-2,11.828-7.043,14.414-7.7-.934,2.077-5.743,7.919-8.447,11.2a1,1,0,0,0,1.416,1.4c4.684-3.945,10.31-8.166,12.614-9.246-.224.386-.929,1.352-1.559,2.213-3.205,4.387-4.16,5.886-3.187,6.85.836.827,2.063.164,4.336-1.53l1.751-1.309c2-1.5,4.455-3.334,6.282-4.587-.546.688-1.274,1.567-2.246,2.692-1.635,1.894-3.006,3.821-1.969,5.086,1.282,1.563,6.677-.2,16.04-5.227-1.187,2.056-1.438,3.5-.7,4.289a1.65,1.65,0,0,0,1.316.559c1.431,0,4.236-1.179,10.585-5.491-.97,1.422-1.522,2.8-1.138,3.859s1.473,1.6,3.231,1.6h0c3.681,0,8.63-3.427,13.029-7.039-.893,2.189-1.37,4.592-.208,5.927,1.642,1.885,5.367.773,11.725-3.5,4.421-2.972,8.187-5.638,11.347-7.967l-.94,1.115-7.581,9.856a1,1,0,0,0,1.437,1.375c4.324-3.644,16.8-12.955,22.573-12.3.041,0,.08.01.116.015-1.686,1.917-10.815,6.455-12.334,6.578l-.28-.024c-.778-.068-1.512-.131-1.808.64s.264,1.207,1.045,1.8c.541.413,1.359,1.036,2.468,2,5.693,4.95,18.667-3.441,26.417-8.454.678-.438,1.3-.84,1.852-1.19-.326,1.053-.648,2.2-.986,3.393-.615,2.183-1.291,4.581-2.08,6.64-1.207.581-2.308,1.13-3.265,1.642-2.751,1.471-3.88,2.669-3.66,3.885.108.594.585,1.349,2.247,1.571,2.884.38,4.785-2.14,6.24-5.627,2.479-1.176,5.373-2.474,8.37-3.818,4.371-1.96,8.892-3.988,12.719-5.9l.138-.069c-.763,1.922-1.418,3.778-2.008,5.45-.433,1.228-.833,2.348-1.219,3.352a56.789,56.789,0,0,0-5.994,3.292c-1.9,1.268-2.033,2.427-1.807,3.176a2.783,2.783,0,0,0,2.861,1.655c3.2,0,4.943-2.729,6.523-6.672,4.393-2.132,10.166-4.678,16.464-7.456l1.546-.683c-.993,1.563-1.832,3.331-1.554,4.552a1.923,1.923,0,0,0,1.114,1.355,2.879,2.879,0,0,0,1.2.256c1.729,0,4.028-1.434,8.433-4.573a3.6,3.6,0,0,0-.1,2.693c.535,1.2,1.866,1.787,4.01,1.721,4.414-.119,10.159-3.278,14.222-5.922-.8,1.977-1.055,4.035-.163,5.381.838,1.268,2.854,2.276,7.693-.119,3.685-1.823,8.854-4.8,14.232-8.093-6.534,6.928-6.03,7.676-5.6,8.313a1.338,1.338,0,0,0,1.72.355.982.982,0,0,0,.114-.061c.18-.111,18.05-11.1,22.788-13.674a8.269,8.269,0,0,1,3.241-1.1,9.174,9.174,0,0,1-1.8,1.978l-.323.289c-1.8,1.6-4.8,4.289-6.938,6.467-3.018,3.076-2.166,5.067-1.66,5.78a4.216,4.216,0,0,0,3.622,1.485,15.034,15.034,0,0,0,6.141-1.62c6.158-2.892,11.047-4.9,13.912-6.026q-.445.658-.864,1.354c-1.453,2.429-1.108,3.914-.564,4.733.421.631,1.513,1.636,4.048,1.265,5.477-.792,15.3-6.684,20.664-10.125,6.327-4.058,9.081-4.577,9.711-4.434-.021.47-.615,3.185-9.937,12.019a1,1,0,0,0,1.3,1.52c4.923-3.778,18.548-13.683,22.425-14.143.821-.1,1.18.047,1.217.128.289.635-.98,3.647-6.758,8.9-4.191,3.811-9.1,10.017-9.146,14.965a5.751,5.751,0,0,0,1.8,4.419,6.838,6.838,0,0,0,4.868,1.825c2.475,0,5.788-1,10.2-3.883,2.2-1.435,4.581-3.168,7.105-5,8.652-6.288,19.422-14.113,31.354-16.188,23.4-4.07,41.677-4.192,62.829-4.335H766a1,1,0,0,0,0-2ZM560.585,37.309a1.1,1.1,0,0,1,.169.012c-.128,1.572-3.973,3.28-7.749,4.4C556.275,38.647,559.444,37.309,560.585,37.309Zm-21.547-16.77a28.5,28.5,0,0,1-4.356,4.874c-1.43,1.234-4.088,3.176-7.4,5.45C533.89,24.553,537.3,21.767,539.038,20.539ZM304.675,18.821a16.4,16.4,0,0,1-2.6,2.942c-2.03,1.864-5.453,4.482-8.088,6.428C299.738,22.316,303.074,19.739,304.675,18.821ZM208.4,39.657a4.364,4.364,0,0,1,2.348-1.486.71.71,0,0,1,.244.04c-.311.87-2.177,2.482-4.967,4.514A18.945,18.945,0,0,1,208.4,39.657Zm-26.7,8.683a1,1,0,0,0-.327,1.11c-2.442,1.771-4.827,3.433-5.674,3.888-1.375.739-3.15.882-3.583.289-.067-.092-1.536-2.37,8.335-11.907,6.934-6.7,13.507-9.6,15.847-9.6a1.7,1.7,0,0,1,.518.067c.147.047.152.078.162.133C197,32.466,197.415,35.951,181.693,48.339ZM150.528,86.559c-4.364,4.557-10.11,8.976-11.79,8.165a.444.444,0,0,1-.309-.428c-.125-1.948,4.964-9.1,25.117-22.208q.622-.4,1.257-.813Zm72.934-25.734a2.026,2.026,0,0,1-1.363.132c-.046-.2.32-1.327,2.964-3.13.74-.5,1.525-1,2.348-1.488A7.1,7.1,0,0,1,223.462,60.824ZM352.989,46.391a.985.985,0,0,0-.426,1.148c-4.386,2.81-6.1,3.39-6.719,3.479a19.4,19.4,0,0,1,3.183-5.138h0c.041-.05,4.106-5.036,7.539-6.181.975-.324,1.859-.17,2.1.367C359.1,41,357.935,43.449,352.989,46.391Zm66.643,10.618c-.137-.018-.248-.04-.337-.061a9.662,9.662,0,0,1,2.43-1.649q.461-.247.97-.506C421.815,56.266,420.816,57.162,419.632,57.009ZM438.669,58.5a2.394,2.394,0,0,1-.939-.187h0s.07-.363,1-.979a40.985,40.985,0,0,1,3.659-2.1C441.319,57.361,440.218,58.5,438.669,58.5Zm30.745-12.81a1,1,0,0,0-.226,1.394c-2.923,2.011-4.793,3.06-5.587,2.725-.255-.657,1.389-3.507,3.387-5.881,3.6-3.535,7.685-6.411,8.576-6.032.2.1.227.191.238.31C475.913,39.483,473.317,42.871,469.414,45.69Z" style="fill:#fff"></path>
  <path d="M625.807,12.423a.794.794,0,0,1,.068-.374,3.69,3.69,0,0,1,.271-.646,9.324,9.324,0,0,1,1.088-1.666,11.723,11.723,0,0,1,3.672-3.162,5.057,5.057,0,0,1,2.21-.646A3.969,3.969,0,0,1,634.2,6c.067.033.1.033.17.067a.737.737,0,0,1-.068.374,20.164,20.164,0,0,1-.884,1.938c-.544,1.155-1.19,2.277-1.836,3.365-.408.68-.748,1.394-1.122,2.107-.34.307-.68.578-1.02.884-.306.307-.034.681.306.715-.476,1.155-.918,2.312-1.359,3.5-.918,2.516-1.734,5.065-2.89,7.514-.238.476.476.918.714.408,1.7-3.57,2.72-7.412,4.249-11.016.137.272.272.544.34.681.578,1.291,1.258,2.516,1.9,3.773,1.394,2.516,3.569,5.745,5.983,7.411a5.465,5.465,0,0,0,3.535,1.02c.544-.067.544-.884,0-.85-2.039.17-4.283-1.768-5.575-3.2a17.777,17.777,0,0,1-2.312-3.2c-.646-1.155-1.292-2.346-1.9-3.569a17.672,17.672,0,0,1-1.394-3.06c0-.034-.034-.068-.034-.1a.363.363,0,0,1,.1-.34,45.7,45.7,0,0,1,3.842-2.924c2.787-1.937,5.643-3.842,8.431-5.779.442-.306.034-1.02-.442-.714-2.821,1.938-5.677,3.842-8.5,5.813-.781.578-1.6,1.156-2.346,1.733.918-1.7,1.9-3.365,2.72-5.133.238-.544.646-1.395.2-1.938a1.575,1.575,0,0,0-.884-.34,7.459,7.459,0,0,0-1.224-.067A9.228,9.228,0,0,0,627.37,8.31a15.161,15.161,0,0,0-1.768,2.346,3.726,3.726,0,0,0-.646,1.768C624.99,12.967,625.841,12.967,625.807,12.423Z" style="fill:#fff"></path>
  <path d="M643.043,20.208a1.554,1.554,0,0,0,.34-1.666A1.193,1.193,0,0,0,642.159,18a.427.427,0,0,0-.2-.781,4.76,4.76,0,0,0-4.182,2.107c-.544.85-.815,2.176.2,2.822,1.054.68,2.652-.1,3.6-.681a6.536,6.536,0,0,0,.748-.544,4.924,4.924,0,0,0,3.746-.452c.05,1.309,1.432,1.914,2.648,1.982a9.152,9.152,0,0,0,5.209-1.842c-.352.716-.721,1.423-1.129,2.114a.412.412,0,0,0,.477.612,5.466,5.466,0,0,0,1.869-1.189l.952-.816.544-.374a1.475,1.475,0,0,1,.238-.136,1.2,1.2,0,0,0-.068.34,2.67,2.67,0,0,0,.1,1.156,1.209,1.209,0,0,0,1.291.748,5.839,5.839,0,0,0,1.632-.442,12.605,12.605,0,0,0,1.8-.884,14.139,14.139,0,0,0,1.844-1.386c.2,1.117,1.747,1.5,2.78,1.556a8.987,8.987,0,0,0,5.618-1.789,3.325,3.325,0,0,0-.415,1.143c-.034.307.408.578.646.374a14.784,14.784,0,0,1,2.584-1.428c1.088-.306-.374,1.7.714,2.38a1.78,1.78,0,0,0,1.258.068,10.78,10.78,0,0,0,1.768-.612,14.208,14.208,0,0,0,3.332-1.937c.408-.34-.17-.952-.578-.612a12.476,12.476,0,0,1-3.264,1.87c-.34.136-2.142.918-2.142.306-.034-.611.646-1.768,0-2.277a1.478,1.478,0,0,0-1.5.1,16.143,16.143,0,0,0-1.529.748v-.034a5.09,5.09,0,0,0,.476-1.189.4.4,0,0,0,0-.131c.24-.4-.29-.9-.645-.516-1.734,1.87-4.658,3.2-7.241,2.584a1.467,1.467,0,0,1-.952-.51,20.329,20.329,0,0,0,3.365-1.326c.477-.306,1.021-.714,1.054-1.325,0-.238-.067-.714-.374-.748a4.358,4.358,0,0,0-1.155,0,5.45,5.45,0,0,0-3.318,1.728,17.792,17.792,0,0,1-2.666,2.181,8.8,8.8,0,0,1-1.7.85,4.266,4.266,0,0,1-1.564.408c-1.088,0,.578-2.72-1.189-2.312a5.657,5.657,0,0,0-1.9,1.326l-.68.577a13.75,13.75,0,0,0,.952-1.665c2.312-1.8,5.405-7.411,5.2-10.437-.034-.306-.34-.578-.646-.374-1.8,1.326-2.72,3.773-3.5,5.779-.5,1.284-1,2.559-1.55,3.811a11,11,0,0,1-4.4,2.479c-.918.237-2.312.441-3.094-.272a1.072,1.072,0,0,1-.306-.578c.68-.577,1.326-1.155,2.006-1.7.1.306.2.646.34.952a.4.4,0,0,0,.578.136,2.1,2.1,0,0,0,.884-1.36,1.392,1.392,0,0,0-.306-1.6,1.14,1.14,0,0,0-.885-.034,7.225,7.225,0,0,0-1.631.782,4.634,4.634,0,0,0-1.539,1.6A4.55,4.55,0,0,1,643.043,20.208Zm-2.924,1.054a2.472,2.472,0,0,1-1.632.2c-.34-.1-.407-.577-.34-.85.307-1.7,2.143-2.516,3.706-2.55a2.276,2.276,0,0,0-.714.306c-.85.544-.477,1.429.17,1.973.068.033.136.1.2.136A4.722,4.722,0,0,1,640.119,21.262Zm2.04-1.359a2.21,2.21,0,0,1-.544-.442,2.046,2.046,0,0,1-.136-.271c0-.034.034-.068.068-.1.17-.136,1.054-.476,1.088-.067A1.225,1.225,0,0,1,642.159,19.9Zm25.807-2.074c-.136.442-1.326.918-1.632,1.055-.612.271-1.258.441-1.9.68.046-.068.1-.134.151-.2.2-.183.4-.367.6-.548v0A4.688,4.688,0,0,1,667.966,17.828Zm-9.689-5.2a8.224,8.224,0,0,1,1.292-1.972A19.326,19.326,0,0,1,655.9,18.44C656.3,17.387,657.767,13.646,658.276,12.627Zm-8.3,5.1a1.427,1.427,0,0,1-.2,1.054,4.127,4.127,0,0,0-.306-.918A.962.962,0,0,1,649.98,17.727Z" style="fill:#fff"></path>
  <path d="M686.5,22.384c1.02-.271,1.734-1.122,2.651-1.6a2.207,2.207,0,0,1-.271,1.054c-.238.408.34.851.646.51a8.744,8.744,0,0,1,2.143-1.733,1.59,1.59,0,0,0,.373,1.394,2.025,2.025,0,0,0,1.395.374,5.7,5.7,0,0,0,3.263-1.273,7.309,7.309,0,0,1-.406,1.036c-.1.271.034.68.374.646a9.5,9.5,0,0,0,5.418-2.777,3.928,3.928,0,0,0-.08,1.894c.238.918,1.225,1.02,2.006.85A8.268,8.268,0,0,0,706.69,21.3c1.055-.748,2.006-1.529,3.026-2.312.441-.306,0-1.054-.408-.714-1.02.748-2.006,1.563-3.025,2.277A6.494,6.494,0,0,1,703.5,22.01c-.408.034-.68-.067-.714-.51a4.411,4.411,0,0,1,.17-1.5c.068-.407.17-.815.272-1.224a9.945,9.945,0,0,0,1.665-2.787,14.2,14.2,0,0,0,2.074-.034c.544-.068.544-.918,0-.851a14.142,14.142,0,0,1-1.7.068,6.1,6.1,0,0,1,.272-.714,14.137,14.137,0,0,0,.952-3.3c.067-.578-.171-1.529-.952-1.258-.646.2-.884,1.19-1.122,1.734-.408,1.155-.816,2.312-1.156,3.467a12.279,12.279,0,0,0-1.563,0c-.51.034-.544.885,0,.851.442-.034.884-.034,1.326-.034l-.612,2.481c-.013.04-.024.079-.034.117a9.416,9.416,0,0,1-5.033,3.317c.442-1.122.681-2.346,1.122-3.434.2-.51-.611-.714-.815-.237-.185.45-.339.9-.482,1.362a6.065,6.065,0,0,1-3.4,2,1.967,1.967,0,0,1-1.088-.1c-.374-.171-.136-1.088-.136-1.5a.436.436,0,0,0-.544-.408A7.544,7.544,0,0,0,690,20.752a3.668,3.668,0,0,0-.034-.611c-.034-.238-.238-.511-.51-.408a9.312,9.312,0,0,0-2.21,1.394c.408-.714.918-1.359,1.292-2.04a.411.411,0,1,0-.714-.407,19.893,19.893,0,0,0-1.836,3.2A.4.4,0,0,0,686.5,22.384Zm18.5-9.858c.136-.374.271-.748.441-1.122a3.513,3.513,0,0,1,.238-.51c0,.2-.068.407-.068.544a14.807,14.807,0,0,1-.68,2.277c-.17.442-.34.952-.544,1.428h-.271C704.379,14.259,704.651,13.375,704.991,12.525ZM703.767,16.4l.1-.441H704a4.782,4.782,0,0,1-.271.611A1.539,1.539,0,0,1,703.767,16.4Z" style="fill:#fff"></path>
  <path d="M698.259,17.148a2.024,2.024,0,0,0,1.9-.952.4.4,0,0,0-.1-.544.841.841,0,0,1,.272.034c.544.034.544-.781,0-.85a4.781,4.781,0,0,0-2.651.441c-.408.238-.986.715-.816,1.225C697.069,17.047,697.783,17.148,698.259,17.148Zm.1-1.258a4.643,4.643,0,0,1,1.189-.238,1.649,1.649,0,0,1-1.768.612A2.117,2.117,0,0,1,698.361,15.891Z" style="fill:#fff"></path>
  <path d="M714.613,26.668a.641.641,0,0,1-.067.237c-.2.511.611.714.781.238l.1-.238a6.6,6.6,0,0,0,2.312.137,11.835,11.835,0,0,0,4.963-1.7c3.4-2.04,5.61-5.983,6.426-9.621a11.607,11.607,0,0,0,0-5.813,6.743,6.743,0,0,0-3.094-4.113c-3.6-2.074-8.091.374-10.062,3.6a7.026,7.026,0,0,0-1.088,3.161c-.068.544.781.544.815,0,.408-3.875,4.726-7.411,8.636-6.527a5.5,5.5,0,0,1,3.739,3.4,9.631,9.631,0,0,1,.306,5.711,15.137,15.137,0,0,1-2.04,5.235,13.687,13.687,0,0,1-3.739,4.046,11.624,11.624,0,0,1-4.556,1.733,5.868,5.868,0,0,1-2.312-.033c2.346-5.983,4.59-12.069,6.8-18.12.17-.511-.646-.748-.815-.238-2.21,6.085-4.42,12.1-6.8,18.12a3.079,3.079,0,0,1-1.088-.782c-.373-.407-.951.2-.577.578A3.885,3.885,0,0,0,714.613,26.668Z" style="fill:#fff"></path>
  <path d="M729.3,21.024a1.352,1.352,0,0,0,1.121.815,2.811,2.811,0,0,0,1.734-.271,10.94,10.94,0,0,0,1.9-1.156.263.263,0,0,0-.033.136,1.269,1.269,0,0,0,1.121,1.53,5.944,5.944,0,0,0,3.2-.85,11.209,11.209,0,0,0,1.024-.607,7.124,7.124,0,0,0-.616,1.253.4.4,0,0,0,.51.51c1.02-.271,1.734-1.122,2.651-1.6a2.207,2.207,0,0,1-.271,1.054c-.238.408.34.851.646.51a8.744,8.744,0,0,1,2.143-1.733,1.59,1.59,0,0,0,.373,1.394,2.025,2.025,0,0,0,1.395.374,5.921,5.921,0,0,0,3.581-1.524c-.238,1.01-.514,2.015-.757,3.02A19.951,19.951,0,0,0,747.083,32a.426.426,0,0,0,.782.238,8.343,8.343,0,0,0,.986-3.025c.237-1.122.407-2.244.577-3.366.1-.578.238-1.155.374-1.733a.119.119,0,0,0,.034-.068,46.36,46.36,0,0,1,3.332-6.459,2.5,2.5,0,0,1,.306,2.447,4.762,4.762,0,0,0-2.04,1.088c-.441.408-.918,1.224-.2,1.632.646.34,1.461-.136,1.938-.544a4.727,4.727,0,0,0,.952-1.462,9.083,9.083,0,0,1,.917-.2,12.076,12.076,0,0,0,2.058-.639,1.257,1.257,0,0,0,.017.3.8.8,0,0,0,.237.477c-.306,1.5-.578,2.991-.781,4.487a36.285,36.285,0,0,0-.408,6.085.425.425,0,0,0,.782.2,19.284,19.284,0,0,0,2.753-6.833,15.982,15.982,0,0,0,.17-2.55,4.487,4.487,0,0,0,0-.68,5.292,5.292,0,0,0,4.964-1.53c.374-.374-.408-.85-.748-.408-2.176,1.462-3.128,1.258-4.283,1.088-.034-.17-.136-.51-.17-.646a1.5,1.5,0,0,0-.986-.816,8.01,8.01,0,0,0,2.686-3.978c.2-.68.986-3.3-.407-3.3-1.258-.034-1.8,2.006-2.074,2.923a37.1,37.1,0,0,0-1.014,3.843,10.5,10.5,0,0,1-3.44,1.223,2.905,2.905,0,0,0-1.122-3.2.436.436,0,0,0-.578.17c-.68,1.054-1.291,2.142-1.869,3.264a17.163,17.163,0,0,0,.374-2.957.426.426,0,0,0-.851,0,15.631,15.631,0,0,1-.265,2.34.4.4,0,0,0-.11.073,6.09,6.09,0,0,1-3.434,2.04,1.967,1.967,0,0,1-1.088-.1c-.374-.171-.136-1.088-.136-1.5a.436.436,0,0,0-.544-.408,7.544,7.544,0,0,0-2.006,1.224,3.668,3.668,0,0,0-.034-.611c-.034-.238-.238-.511-.51-.408a9.312,9.312,0,0,0-2.21,1.394c.408-.714.918-1.359,1.292-2.04,0-.008,0-.016.008-.025.087-.083.178-.162.263-.247.408-.374-.2-.952-.578-.578a9.978,9.978,0,0,1-5.2,2.992c-.2.033-.612.1-.782-.034s-.136-.374-.136-.578a2.633,2.633,0,0,1,.136-.714c.1-.272.17-.306.17-.306.307-.307-.17-.952-.544-.646a24.991,24.991,0,0,1-2.176,1.53,4.787,4.787,0,0,1-1.359.544c-.238.034-.986.067-.986-.238,0-2.991,3.672-2.244,4.487-2.04.544.137.544-.815,0-.85a5,5,0,0,0-4.182.442A2.667,2.667,0,0,0,729.3,21.024Zm23.323.51a1.445,1.445,0,0,1-.851.476,2.691,2.691,0,0,1,1.19-.918A2.209,2.209,0,0,1,752.625,21.534Zm6.392,1.428a14.809,14.809,0,0,1-2.04,6.731,46.84,46.84,0,0,1,.748-6.527l.408-2.107a1.971,1.971,0,0,0,.884.271C759.051,21.942,759.017,22.384,759.017,22.962Zm-.271-2.89a.858.858,0,0,1,.136.306,1.857,1.857,0,0,1-.578-.17.986.986,0,0,0,.068-.306A1.262,1.262,0,0,1,758.745,20.072Zm.34-3.162q.255-1.071.611-2.142a6.042,6.042,0,0,1,.851-1.836c.067-.067.136-.17.2-.2.033-.034.067-.068.1-.068a1.041,1.041,0,0,1,.034.34,7.521,7.521,0,0,1-.374,1.938,6.765,6.765,0,0,1-1.6,2.754Z" style="fill:#fff"></path>
</svg>
